<svg width="30" height="30" viewBox="0 0 30 30" fill="none" xmlns="http://www.w3.org/2000/svg">
<path d="M26.2679 11.6664C26.2679 11.2796 26.1143 10.9086 25.8408 10.6352C25.5673 10.3617 25.1964 10.208 24.8096 10.208C24.4228 10.208 24.0519 10.3617 23.7784 10.6352C23.5049 10.9086 23.3513 11.2796 23.3513 11.6664H26.2679ZM5.85125 11.6664C5.85125 11.2796 5.69761 10.9086 5.42412 10.6352C5.15063 10.3617 4.77969 10.208 4.39292 10.208C4.00615 10.208 3.63521 10.3617 3.36172 10.6352C3.08823 10.9086 2.93459 11.2796 2.93459 11.6664H5.85125ZM26.6952 15.6141C26.9703 15.8797 27.3386 16.0267 27.721 16.0234C28.1034 16.0201 28.4691 15.8667 28.7395 15.5963C29.0099 15.3259 29.1633 14.9601 29.1666 14.5778C29.1699 14.1954 29.0229 13.827 28.7573 13.552L26.6952 15.6141ZM14.6013 1.45802L15.6323 0.42698C15.3588 0.153585 14.988 0 14.6013 0C14.2146 0 13.8437 0.153585 13.5702 0.42698L14.6013 1.45802ZM0.445212 13.552C0.305926 13.6865 0.194827 13.8474 0.118397 14.0253C0.0419677 14.2033 0.00173771 14.3946 5.50619e-05 14.5883C-0.00162759 14.7819 0.0352708 14.9739 0.108597 15.1532C0.181923 15.3324 0.290209 15.4952 0.427136 15.6321C0.564063 15.7691 0.726888 15.8774 0.906112 15.9507C1.08534 16.024 1.27737 16.0609 1.47101 16.0592C1.66464 16.0575 1.856 16.0173 2.03393 15.9409C2.21185 15.8644 2.37277 15.7533 2.5073 15.6141L0.445212 13.552ZM7.30959 29.1664H21.8929V26.2497H7.30959V29.1664ZM26.2679 24.7914V11.6664H23.3513V24.7914H26.2679ZM5.85125 24.7914V11.6664H2.93459V24.7914H5.85125ZM28.7573 13.552L15.6323 0.42698L13.5702 2.48906L26.6952 15.6141L28.7573 13.552ZM13.5702 0.42698L0.445212 13.552L2.5073 15.6141L15.6323 2.48906L13.5702 0.42698ZM21.8929 29.1664C23.0532 29.1664 24.166 28.7054 24.9865 27.8849C25.807 27.0645 26.2679 25.9517 26.2679 24.7914H23.3513C23.3513 25.1781 23.1976 25.5491 22.9241 25.8226C22.6506 26.096 22.2797 26.2497 21.8929 26.2497V29.1664ZM7.30959 26.2497C6.92281 26.2497 6.55188 26.096 6.27839 25.8226C6.0049 25.5491 5.85125 25.1781 5.85125 24.7914H2.93459C2.93459 25.9517 3.39552 27.0645 4.21599 27.8849C5.03647 28.7054 6.14926 29.1664 7.30959 29.1664V26.2497Z" fill="#14AE5C"/>
</svg>
